<?xml version="1.0" encoding="UTF-8" standalone="no"?>
<!-- Created with Inkscape (http://www.inkscape.org/) -->

<svg
   xmlns:dc="http://purl.org/dc/elements/1.1/"
   xmlns:cc="http://creativecommons.org/ns#"
   xmlns:rdf="http://www.w3.org/1999/02/22-rdf-syntax-ns#"
   xmlns:svg="http://www.w3.org/2000/svg"
   xmlns="http://www.w3.org/2000/svg"
   xmlns:sodipodi="http://sodipodi.sourceforge.net/DTD/sodipodi-0.dtd"
   xmlns:inkscape="http://www.inkscape.org/namespaces/inkscape"
   width="59.873001mm"
   height="8.2847662mm"
   viewBox="0 0 212.14843 29.355471"
   id="svg3452"
   version="1.1"
   inkscape:version="0.91 r13725"
   sodipodi:docname="hereglish-logo.svg">
  <defs
     id="defs3454" />
  <sodipodi:namedview
     id="base"
     pagecolor="#ffffff"
     bordercolor="#666666"
     borderopacity="1.0"
     inkscape:pageopacity="0.0"
     inkscape:pageshadow="2"
     inkscape:zoom="1.4"
     inkscape:cx="315.55112"
     inkscape:cy="-34.44575"
     inkscape:document-units="px"
     inkscape:current-layer="layer1"
     showgrid="false"
     fit-margin-top="0"
     fit-margin-left="0"
     fit-margin-right="0"
     fit-margin-bottom="0"
     inkscape:window-width="1366"
     inkscape:window-height="706"
     inkscape:window-x="-8"
     inkscape:window-y="-8"
     inkscape:window-maximized="1" />
  <metadata
     id="metadata3457">
    <rdf:RDF>
      <cc:Work
         rdf:about="">
        <dc:format>image/svg+xml</dc:format>
        <dc:type
           rdf:resource="http://purl.org/dc/dcmitype/StillImage" />
        <dc:title></dc:title>
      </cc:Work>
    </rdf:RDF>
  </metadata>
  <g
     inkscape:label="Layer 1"
     inkscape:groupmode="layer"
     id="layer1"
     transform="translate(-28.2115,-131.97018)">
    <g
       transform="translate(-129.66796,-239.9986)"
       style="font-style:normal;font-weight:normal;font-size:40px;line-height:125%;font-family:sans-serif;letter-spacing:0px;word-spacing:0px;fill:#000000;fill-opacity:1;stroke:none;stroke-width:1px;stroke-linecap:butt;stroke-linejoin:miter;stroke-opacity:1"
       id="text3370">
      <path
         d="m 181.27789,400.93362 -6.03515,0 0,-12.32421 -11.3086,0 0,12.32421 -6.05468,0 0,-28.55468 6.05468,0 0,11.1914 11.3086,0 0,-11.1914 6.03515,0 0,28.55468 z"
         style="font-style:normal;font-variant:normal;font-weight:bold;font-stretch:normal;font-family:'Open Sans';-inkscape-font-specification:'Open Sans Bold';fill:#0000ff"
         id="path3415"
         inkscape:connector-curvature="0" />
      <path
         d="m 204.94977,400.93362 -16.44531,0 0,-28.55468 16.44531,0 0,4.96093 -10.39063,0 0,6.26954 9.66797,0 0,4.96093 -9.66797,0 0,7.36328 10.39063,0 0,5 z"
         style="font-style:normal;font-variant:normal;font-weight:bold;font-stretch:normal;font-family:'Open Sans';-inkscape-font-specification:'Open Sans Bold';fill:#0000ff"
         id="path3417"
         inkscape:connector-curvature="0" />
      <path
         d="m 216.98102,385.05472 1.95312,0 q 2.8711,0 4.23828,-0.95703 1.36719,-0.95703 1.36719,-3.00782 0,-2.03125 -1.40625,-2.89062 -1.38672,-0.85938 -4.3164,-0.85938 l -1.83594,0 0,7.71485 z m 0,4.92187 0,10.95703 -6.05469,0 0,-28.55468 8.32031,0 q 5.82032,0 8.61328,2.1289 2.79297,2.10938 2.79297,6.42578 0,2.51954 -1.38672,4.49219 -1.38671,1.95313 -3.92578,3.06641 6.44532,9.6289 8.39844,12.4414 l -6.71875,0 -6.81641,-10.95703 -3.22265,0 z"
         style="font-style:normal;font-variant:normal;font-weight:bold;font-stretch:normal;font-family:'Open Sans';-inkscape-font-specification:'Open Sans Bold';fill:#0000ff"
         id="path3419"
         inkscape:connector-curvature="0" />
      <path
         d="m 253.77789,400.93362 -16.44531,0 0,-28.55468 16.44531,0 0,4.96093 -10.39062,0 0,6.26954 9.66797,0 0,4.96093 -9.66797,0 0,7.36328 10.39062,0 0,5 z"
         style="font-style:normal;font-variant:normal;font-weight:bold;font-stretch:normal;font-family:'Open Sans';-inkscape-font-specification:'Open Sans Bold';fill:#0000ff"
         id="path3421"
         inkscape:connector-curvature="0" />
      <path
         d="m 270.5943,384.89847 11.32812,0 0,14.80469 q -2.7539,0.89843 -5.19531,1.25 -2.42187,0.37109 -4.96094,0.37109 -6.46484,0 -9.88281,-3.78906 -3.39844,-3.8086 -3.39844,-10.91797 0,-6.91406 3.94532,-10.78125 3.96484,-3.86719 10.97656,-3.86719 4.39453,0 8.47656,1.75781 l -2.01172,4.84375 q -3.125,-1.5625 -6.5039,-1.5625 -3.92578,0 -6.28907,2.63672 -2.36328,2.63672 -2.36328,7.08985 0,4.64843 1.89453,7.10937 1.91407,2.44141 5.54688,2.44141 1.89453,0 3.84766,-0.39063 l 0,-5.95703 -5.41016,0 0,-5.03906 z"
         style="font-style:normal;font-variant:normal;font-weight:bold;font-stretch:normal;font-family:'Open Sans';-inkscape-font-specification:'Open Sans Bold';fill:#d40000"
         id="path3423"
         inkscape:connector-curvature="0" />
      <path
         d="m 288.73883,400.93362 0,-28.55468 6.05469,0 0,23.55468 11.58203,0 0,5 -17.63672,0 z"
         style="font-style:normal;font-variant:normal;font-weight:bold;font-stretch:normal;font-family:'Open Sans';-inkscape-font-specification:'Open Sans Bold';fill:#d40000"
         id="path3425"
         inkscape:connector-curvature="0" />
      <path
         d="m 311.31696,400.93362 0,-28.55468 6.05468,0 0,28.55468 -6.05468,0 z"
         style="font-style:normal;font-variant:normal;font-weight:bold;font-stretch:normal;font-family:'Open Sans';-inkscape-font-specification:'Open Sans Bold';fill:#d40000"
         id="path3427"
         inkscape:connector-curvature="0" />
      <path
         d="m 341.45367,393.00394 q 0,3.86718 -2.79296,6.09375 -2.77344,2.22656 -7.73438,2.22656 -4.57031,0 -8.08594,-1.71875 l 0,-5.625 q 2.89063,1.28906 4.88282,1.81641 2.01171,0.52734 3.67187,0.52734 1.99219,0 3.04688,-0.76172 1.07421,-0.76172 1.07421,-2.26562 0,-0.83985 -0.46875,-1.48438 -0.46875,-0.66406 -1.38671,-1.26953 -0.89844,-0.60547 -3.69141,-1.93359 -2.61719,-1.23047 -3.92578,-2.36329 -1.3086,-1.13281 -2.08985,-2.63671 -0.78125,-1.50391 -0.78125,-3.51563 0,-3.78906 2.5586,-5.95703 2.57812,-2.16797 7.10937,-2.16797 2.22657,0 4.23828,0.52734 2.03125,0.52735 4.23829,1.48438 l -1.95313,4.70703 q -2.28516,-0.9375 -3.78906,-1.30859 -1.48438,-0.3711 -2.92969,-0.3711 -1.71875,0 -2.63672,0.80078 -0.91797,0.80079 -0.91797,2.08985 0,0.80078 0.3711,1.40625 0.37109,0.58594 1.17187,1.15234 0.82031,0.54688 3.84766,1.99219 4.0039,1.91406 5.48828,3.84766 1.48437,1.91406 1.48437,4.70703 z"
         style="font-style:normal;font-variant:normal;font-weight:bold;font-stretch:normal;font-family:'Open Sans';-inkscape-font-specification:'Open Sans Bold';fill:#d40000"
         id="path3429"
         inkscape:connector-curvature="0" />
      <path
         d="m 370.02789,400.93362 -6.03515,0 0,-12.32421 -11.3086,0 0,12.32421 -6.05468,0 0,-28.55468 6.05468,0 0,11.1914 11.3086,0 0,-11.1914 6.03515,0 0,28.55468 z"
         style="font-style:normal;font-variant:normal;font-weight:bold;font-stretch:normal;font-family:'Open Sans';-inkscape-font-specification:'Open Sans Bold';fill:#d40000"
         id="path3431"
         inkscape:connector-curvature="0" />
    </g>
  </g>
</svg>
